HIERARCHY
ROOT Hips
{
  OFFSET 90.7885 88.945 -76.2838
  CHANNELS 6 Xposition Yposition Zposition Zrotation Xrotation Yrotation
  JOINT LeftUpLeg
  {
    OFFSET 8.64259 1.95398 -2.38835
    CHANNELS 3 Zrotation Xrotation Yrotation
    JOINT LeftLeg
    {
      OFFSET 43.7702 0 0
      CHANNELS 3 Zrotation Xrotation Yrotation
      JOINT LeftFoot
      {
        OFFSET 40.6238 0 0
        CHANNELS 3 Zrotation Xrotation Yrotation
        JOINT LeftToeBase
        {
          OFFSET 12.7242 0 0
          CHANNELS 3 Zrotation Xrotation Yrotation
          End Site
          {
            OFFSET 0 0 0
          }
        }
      }
    }
  }
  JOINT RightUpLeg
  {
    OFFSET -8.2249 1.95398 -2.59336
    CHANNELS 3 Zrotation Xrotation Yrotation
    JOINT RightLeg
    {
      OFFSET 43.5653 0 0
      CHANNELS 3 Zrotation Xrotation Yrotation
      JOINT RightFoot
      {
        OFFSET 40.6238 0 0
        CHANNELS 3 Zrotation Xrotation Yrotation
        JOINT RightToeBase
        {
          OFFSET 12.7242 0 0
          CHANNELS 3 Zrotation Xrotation Yrotation
          End Site
          {
            OFFSET 0 0 0
          }
        }
      }
    }
  }
  JOINT Spine
  {
    OFFSET 0.165834 0.87714 6.61349
    CHANNELS 3 Zrotation Xrotation Yrotation
    JOINT Spine1
    {
      OFFSET 7.38963 1.71661e-005 0
      CHANNELS 3 Zrotation Xrotation Yrotation
      JOINT Spine2
      {
        OFFSET 11.9445 1.14441e-005 0
        CHANNELS 3 Zrotation Xrotation Yrotation
        JOINT Spine3
        {
          OFFSET 14.7254 4.19617e-005 0
          CHANNELS 3 Zrotation Xrotation Yrotation
          JOINT Spine4
          {
            OFFSET 10.9679 0 0
            CHANNELS 3 Zrotation Xrotation Yrotation
            JOINT RightShoulder
            {
              OFFSET 2.46616 -1.6653 3.69651
              CHANNELS 3 Zrotation Xrotation Yrotation
              JOINT RightArm
              {
                OFFSET 13.0012 0 0
                CHANNELS 3 Zrotation Xrotation Yrotation
                JOINT RightForeArm
                {
                  OFFSET 28.7848 1.52588e-005 0
                  CHANNELS 3 Zrotation Xrotation Yrotation
                  JOINT RightHand
                  {
                    OFFSET 26.5688 1.52588e-005 0
                    CHANNELS 3 Zrotation Xrotation Yrotation
                    End Site
                    {
                      OFFSET 0 0 0
                    }
                  }
                }
              }
            }
            JOINT LeftShoulder
            {
              OFFSET 2.38034 -1.29275 -3.7523
              CHANNELS 3 Zrotation Xrotation Yrotation
              JOINT LeftArm
              {
                OFFSET 16.3182 6.10352e-005 0
                CHANNELS 3 Zrotation Xrotation Yrotation
                JOINT LeftForeArm
                {
                  OFFSET 27.0901 0 0
                  CHANNELS 3 Zrotation Xrotation Yrotation
                  JOINT LeftHand
                  {
                    OFFSET 24.5451 1.52588e-005 0
                    CHANNELS 3 Zrotation Xrotation Yrotation
                    End Site
                    {
                      OFFSET 0 0 0
                    }
                  }
                }
              }
            }
            JOINT Neck
            {
              OFFSET 5.0226 -0.0266342 0
              CHANNELS 3 Zrotation Xrotation Yrotation
              JOINT Head
              {
                OFFSET 6.69363 2.86102e-005 0
                CHANNELS 3 Zrotation Xrotation Yrotation
                End Site
                {
                  OFFSET 0 0 0
                }
              }
            }
          }
        }
      }
    }
  }
}
MOTION
Frames:	6
Frame Time:	0.0416667
-36.0431 87.4602 39.0881 26.6479 19.0333 121.749 -18.2958 84.0888 -65.1863 -44.052 12.3913 -10.2647 72.5501 5.5993 -0.126725 -1.87617 -1.47058 5.29757 23.1752 85.1628 -117.914 -48.1002 -16.2767 4.8137 72.7118 -6.44466 -1.93943 15.1344 -0.732498 3.82771 0.951541 12.3594 -89.8151 2.15027 1.97165 0.401403 -9.51924 1.9874 0.314186 -32.0639 1.75984 0.975555 -12.0513 1.75984 0.975557 49.3357 -15.5738 172.202 -87.2817 -15.5354 21.7662 11.8798 17.7493 -22.6173 -14.5851 3.20303 -21.8036 -87.9316 -13.1797 70.7626 -4.23139 -30.3957 -89.3887 15.7778 -3.1327 -5.19156 3.44663 -0.216329 -6.84466 35.9648 -2.03781 1.51754 -10.2756 -2.44656 -2.33526 
-36.0778 87.1219 39.3086 26.5497 19.2805 121.953 -19.1633 83.5769 -64.1133 -44.5345 12.9125 -10.5959 72.9161 5.76723 0.0577731 -2.54079 -0.963006 4.91828 23.3783 84.634 -118.459 -48.9165 -16.0817 5.09986 72.359 -6.3752 -2.93978 16.5326 -2.22346 6.33669 0.914098 12.3574 -89.7789 2.15391 1.911 0.470678 -9.51571 1.92987 0.386106 -32.0593 1.68118 1.0234 -12.0467 1.68118 1.02339 67.0952 -6.84912 -173.734 -64.7997 -3.56867 24.3475 7.18403 20.829 -18.8968 -14.0933 3.01892 -20.2755 -87.4191 -12.1979 71.5525 -4.28336 -29.8276 -89.6373 15.8211 -3.11533 -3.7015 3.76526 -0.246535 -7.27019 36.465 -2.55959 0.0370952 -10.7444 -2.37629 -0.817596 
-36.1004 87.147 39.6505 26.6975 19.6585 122.154 -20.0623 83.8345 -63.1379 -44.1156 13.1217 -10.681 70.7195 4.83526 0.0682773 2.66744 -0.792641 4.31139 25.4878 84.7744 -120.625 -48.7869 -16.1971 5.21801 72.7375 -6.48723 -2.38497 15.4714 -1.27683 4.75357 0.907979 12.3116 -89.7989 2.24604 1.89127 0.428848 -9.42362 1.9083 0.345165 -31.9673 1.67493 0.977571 -11.9546 1.67493 0.977571 83.6491 0.499266 -148.416 -40.2875 17.895 6.78795 3.29531 29.2711 -14.036 -12.3693 3.37399 -21.7161 -87.7473 -12.8757 71.0682 -4.44164 -28.9049 -88.8619 15.5814 -5.24071 -2.92086 2.89012 -0.249924 -8.24859 36.2471 -2.36091 0.937107 -10.7933 -2.54115 -1.56754 
-36.2985 87.3826 40.0344 26.78 19.3206 122.155 -16.328 84.2236 -66.6428 -42.8629 13.1875 -10.6853 70.9188 4.91852 0.409701 2.22234 -2.52192 5.905 26.0328 85.0634 -120.526 -47.6206 -15.8368 5.07623 72.5205 -6.32644 -1.89635 14.7444 -0.838633 4.05757 0.925367 12.1173 -89.7348 2.6332 1.95206 0.545655 -9.03636 1.97418 0.459174 -31.58 1.6978 1.10722 -11.5674 1.69781 1.10723 86.5831 -11.2365 -126.097 -25.9135 29.5549 -25.3421 2.91312 32.4742 -10.6867 -9.479 3.47278 -24.6018 -87.8139 -12.8524 70.8921 -4.72445 -26.4999 -85.3515 14.6389 -10.0783 -2.99235 1.98675 -0.328499 -10.5262 36.4289 -2.20691 1.29713 -11.5016 -2.52041 -1.94909 
-36.0348 88.143 40.4489 28.6184 21.4721 122.189 -45.0179 87.6525 -38.5711 -40.235 13.5722 -10.2567 70.6106 4.75596 0.116488 0.797335 -2.10891 5.66441 67.8864 87.5122 -162.411 -46.1922 -15.4408 4.83585 71.4225 -5.88033 -3.30535 15.9894 -1.04025 4.27036 0.88195 12.0498 -89.8099 2.77008 1.8363 0.39436 -8.89959 1.85188 0.313114 -31.4429 1.63286 0.928122 -11.4303 1.63286 0.92813 88.9435 -11.9214 -119.115 -10.1552 27.815 -36.2061 2.6109 29.8964 -10.0116 -11.4569 3.55445 -23.8089 -88.2776 -14.7522 70.7101 -5.54336 -20.8868 -80.8147 13.1453 -13.9193 -2.3738 3.64861 -0.383153 -9.92956 36.0746 -2.03462 1.67068 -12.3954 -2.46811 -2.40535 
-35.6527 89.1635 40.7856 30.8166 22.29 122.01 -164.025 87.8497 80.5203 -37.5489 12.4494 -9.32781 68.4824 3.84718 0.771616 6.50569 0.490744 2.65776 144.1 86.0834 122.686 -43.0363 -13.4827 4.22331 70.0672 -5.10538 -2.29781 18.0709 -1.53239 4.94109 0.906104 11.7705 -89.7802 3.3285 1.89749 0.440534 -8.3411 1.91502 0.356554 -30.8848 1.67736 0.990556 -10.8722 1.67733 0.990579 88.3387 -13.4032 -119.522 -4.23108 19.2725 -34.7241 3.93731 18.8712 -10.3964 -17.5392 2.81872 -17.3905 -88.4939 -16.2946 70.9525 -5.04355 -12.8357 -74.1666 10.7121 -10.3813 -2.47925 1.05318 -0.214709 -8.5183 34.8934 -1.88672 1.1801 -12.8989 -2.09828 -2.24069 
